<?xml version="1.0" encoding="UTF-8"?>
<svg width="50px" height="50px" viewBox="0 0 50 50" version="1.1" xmlns="http://www.w3.org/2000/svg" xmlns:xlink="http://www.w3.org/1999/xlink">
    <title>9DA86165-AD9E-4282-AC82-DEA11C2CC562</title>
    <g id="Go-around-level" stroke="none" stroke-width="1" fill="none" fill-rule="evenodd">
        <g id="stat-image" transform="translate(-34.000000, -138.000000)" fill-rule="nonzero">
            <g id="good" transform="translate(34.000000, 138.000000)">
                <path d="M45.0119532,27.2851032 C45.0119532,39.7012641 34.9456782,49.7664 22.5298968,49.7664 C19.4840438,49.7664 16.5805734,49.1607984 13.9322532,48.0631218 C6.69389067,45.0647297 1.36231875,38.394 0.260085913,30.375 C0.11998125,29.3650313 0.0486,28.3334203 0.0486,27.2851032 C0.0486,14.8681828 10.1137359,4.80304683 22.5298968,4.80304683 C34.9456782,4.80304683 45.0119532,14.8681828 45.0119532,27.2851032 Z" id="Path" fill="#54BDD8"></path>
                <path d="M22.5298968,4.80304683 C21.3410953,4.80304683 20.1743157,4.89607034 19.0356328,5.07376409 C29.7925593,6.7523625 38.0238047,16.0566047 38.0238047,27.2851032 C38.0238047,38.5120828 29.7933187,47.8159453 19.0371516,49.4953032 C20.1754547,49.6729968 21.341475,49.7664 22.5295172,49.7664 C34.9456782,49.7664 45.0119532,39.7012641 45.0119532,27.2851032 C45.0119532,14.8681828 34.9456782,4.80304683 22.5298968,4.80304683 L22.5298968,4.80304683 Z" id="Path" fill="#45A7C1"></path>
                <path d="M47.8186032,25.6232109 L34.9809891,34.1240343 C34.0663218,34.7300157 32.9583937,34.9703578 31.875525,34.7972203 C30.7899984,34.6244625 29.6794125,34.8613875 28.7624672,35.4685078 L27.0443813,36.6071907 L17.4231,22.4247234 L19.7836172,12.2270766 C19.9670063,11.43315 20.0577516,10.6285922 20.0577516,9.82707183 C20.0577516,7.75359841 19.4513907,5.70708284 18.2884078,3.95026875 C18.0025032,3.51818433 17.8658157,3.02952659 17.8658157,2.54694375 C17.8658157,1.7222625 18.2660063,0.913148413 19.0056375,0.423351587 C20.0023172,-0.236925 21.32325,-0.114285913 22.1813438,0.717989087 L23.710725,2.19915 C25.4595657,3.89597341 26.8085953,5.96185317 27.6556782,8.2468125 L28.4849157,10.479375 L37.0244672,4.83721875 C38.3883047,3.93432183 40.2332063,4.32919683 41.1042093,5.72606716 C41.9440782,7.07167966 41.5127532,8.84975625 40.1895422,9.72569534 C40.1735953,9.73632659 40.1724563,9.7534125 40.1777718,9.76632183 C40.1853657,9.78037034 40.2013125,9.7898625 40.2191578,9.78226875 C40.5567,9.65241567 40.9098093,9.5893875 41.2598813,9.5893875 C41.8187813,9.5893875 42.3727453,9.750375 42.8465953,10.0567828 C43.1731266,10.2678891 43.4624484,10.5484782 43.6906407,10.8932343 C44.1314578,11.5592062 44.2628297,12.3402234 44.1185484,13.0661859 C43.8922547,14.2098047 43.0611187,14.7990797 42.8978532,14.9099484 C42.8701359,14.9293125 42.8625422,14.9676609 42.8819063,14.9965172 C42.8819063,14.9972766 42.8830453,14.9984157 42.8838047,14.9984157 C42.9020297,15.0242343 42.9392391,15.0314484 42.9658172,15.0147422 C43.1985657,14.9581687 43.4354907,14.9312109 43.6724157,14.9312109 C44.2506797,14.9312109 44.8259063,15.0956157 45.3149437,15.4073391 C45.6456516,15.618825 45.9380109,15.898275 46.1643047,16.2407532 C47.0520141,17.58105 46.6852359,19.3876032 45.3434203,20.2756922 C45.3103875,20.2980937 45.2773547,20.3204953 45.2443218,20.3417578 C45.2253375,20.3569453 45.2196422,20.3812453 45.2295141,20.3983312 C45.2314125,20.4025078 45.2359687,20.4070641 45.2401453,20.4089625 C45.2549532,20.4207328 45.2784937,20.4218718 45.2978578,20.4070641 C46.1312718,20.1230578 47.0383453,20.2521516 47.7681047,20.7248625 C48.1041282,20.940525 48.4021828,21.2309859 48.6379687,21.5871328 C49.5260578,22.9285687 49.1589,24.7351218 47.8186032,25.6232109 L47.8186032,25.6232109 Z" id="Path" fill="#FDD7BD"></path>
                <path d="M27.1670203,39.2987953 L21.7511578,42.8853234 L13.9322532,48.0631218 C6.69389067,45.06435 1.36231875,38.3947593 0.260085913,30.375 L9.33385784,24.3660657 L14.8575516,20.7077766 C15.4935282,20.2863234 16.3516218,20.4613593 16.773075,21.098475 L27.5577187,37.3821328 C27.9791718,38.0192484 27.8041359,38.8758234 27.1670203,39.2987953 L27.1670203,39.2987953 Z" id="Path" fill="#EE7B3C"></path>
                <path d="M27.1670203,39.2987953 L21.7511578,42.8853234 L9.33385784,24.3660657 L14.8575516,20.7077766 C15.4935282,20.2863234 16.3516218,20.4613593 16.773075,21.098475 L27.5577188,37.3817532 C27.9791718,38.0192484 27.8041359,38.8758234 27.1670203,39.2987953 L27.1670203,39.2987953 Z" id="Path" fill="#D65B18"></path>
                <g id="Group" transform="translate(36.741600, 9.525600)" fill="#FAC5AA">
                    <path d="M6.10499534,0.530803174 L1.83313125,2.81690159 C1.22715,3.14039534 0.475748413,2.97143433 0.06834375,2.41974841 L3.43617183,0.240721826 C3.44376567,0.254770337 3.4597125,0.2642625 3.47755784,0.25666875 C3.8151,0.126815674 4.16820933,0.0637875 4.51828125,0.0637875 C5.07756091,0.0637875 5.63114534,0.224775 6.10499534,0.530803174 L6.10499534,0.530803174 Z" id="Path"></path>
                    <path d="M8.57334375,5.88173909 L4.39450317,8.1162 C3.78852183,8.44083284 3.03712034,8.27225159 2.62933591,7.72056567 L5.99716409,5.54115933 L6.14258433,5.47281567 C6.16080933,5.49863433 6.19801875,5.50584841 6.22459683,5.48914216 C6.45734534,5.43256875 6.69427034,5.40561091 6.93119534,5.40561091 C7.50945933,5.40561091 8.08468591,5.57001567 8.57334375,5.88173909 Z" id="Path"></path>
                    <path d="M11.0268843,11.1992625 L7.34619375,13.1683218 C6.74097183,13.4914359 5.98995,13.3228547 5.58102659,12.7711687 L8.49854534,10.8833625 C8.51373284,10.8951328 8.53727341,10.8962718 8.55625784,10.8810843 C9.38967183,10.5974578 10.2967453,10.7265516 11.0268843,11.1992625 L11.0268843,11.1992625 Z" id="Path"></path>
                </g>
            </g>
        </g>
    </g>
</svg>