<?xml version="1.0" encoding="UTF-8"?>
<svg width="61px" height="76px" viewBox="0 0 61 76" version="1.1" xmlns="http://www.w3.org/2000/svg" xmlns:xlink="http://www.w3.org/1999/xlink">
    <title>EFE79D53-FD89-4B1F-9DBD-50771CBA00F9</title>
    <g id="Go-around-level" stroke="none" stroke-width="1" fill="none" fill-rule="evenodd">
        <g id="stat-image" transform="translate(-179.000000, -138.000000)" fill-rule="nonzero">
            <g id="intelligence" transform="translate(179.000000, 138.000000)">
                <path d="M25.1939436,68.2219867 L25.1939436,67.8530726 L21.9323063,67.8530726 L21.9323063,68.2219867 C21.9323063,69.464962 22.9001584,70.5946108 24.1537457,70.5946108 L27.4153828,70.5946108 C26.1624035,70.5946108 25.1939436,69.464962 25.1939436,68.2219867 Z" id="Path" fill="#F6DBCC"></path>
                <path d="M25.1092089,63.6912883 L28.0498422,63.6912883 C28.0670146,63.6912883 28.083595,63.6894517 28.1007674,63.6882272 C27.5938842,63.6619027 27.1965493,63.2296902 27.1965493,62.7056479 C27.1965493,62.1816056 27.5938842,61.7493932 28.1007674,61.7230686 C28.083595,61.7218443 28.0670146,61.7200076 28.0498422,61.7200076 L25.1092089,61.7200076 L25.1092089,58.9430731 L21.9323063,58.9430731 L21.9323063,61.7200076 L24.5697572,61.7200076 C25.0961815,61.7200076 25.5231239,62.161403 25.5231239,62.7056479 C25.5231239,63.2498929 25.0961815,63.6912883 24.5697572,63.6912883 L21.9323063,63.6912883 L21.9323063,66.4823034 L25.1092089,66.4823034 L25.1092089,63.6912883 Z" id="Path" fill="#F6DBCC"></path>
                <path d="M19.8252884,46.9348997 C15.8657979,43.2478264 13.568001,38.0816018 13.4660348,32.6356349 C13.3634758,27.1896681 15.4650469,21.9382001 19.2828518,18.1016509 C22.5659269,14.7885677 26.9071978,12.7679412 31.5276903,12.4017551 C31.0611355,12.363936 30.5922094,12.342325 30.1197265,12.3375225 C30.0580725,12.3375225 29.9970114,12.3375225 29.9353575,12.3369223 C19.073584,12.3375225 10.271291,21.2586549 10.2807686,32.2568425 C10.2872974,37.8342761 12.5939865,43.1553795 16.6441795,46.9348997 C19.6053496,49.687298 21.3802732,53.5076389 21.585984,57.572304 L24.7665002,57.572304 C24.561382,53.5076389 22.7864585,49.687298 19.8252884,46.9348997 Z" id="Path" fill="#F6DBCC"></path>
                <path d="M31.184998,8.22461485 C31.7525821,8.22461485 32.2130748,7.79973612 32.2130748,7.27604838 L32.2130748,0.948566474 C32.2130748,0.424878733 31.7525821,0 31.184998,0 C30.6167446,0 30.1569211,0.424878733 30.1569211,0.948566474 L30.1569211,7.27604838 C30.1569211,7.79973612 30.6167446,8.22461485 31.184998,8.22461485 Z" id="Path" fill="#EE7B3C"></path>
                <path d="M53.0377227,31.5276903 L59.365347,31.5276903 C59.8889954,31.5276903 60.3138423,31.0671975 60.3138423,30.4996134 C60.3138423,29.9320293 59.8889954,29.4715366 59.365347,29.4715366 L53.0377227,29.4715366 C52.5140742,29.4715366 52.0892274,29.9320293 52.0892274,30.4996134 C52.0892274,31.0671975 52.5140742,31.5276903 53.0377227,31.5276903 L53.0377227,31.5276903 Z" id="Path" fill="#EE7B3C"></path>
                <path d="M7.27604838,31.5276903 C7.79973612,31.5276903 8.22461485,31.0671975 8.22461485,30.4996134 C8.22461485,29.9320293 7.79973612,29.4715366 7.27604838,29.4715366 L0.948566474,29.4715366 C0.424878733,29.4715366 0,29.9320293 0,30.4996134 C0,31.0671975 0.424878733,31.5276903 0.948566474,31.5276903 L7.27604838,31.5276903 Z" id="Path" fill="#EE7B3C"></path>
                <path d="M52.4959248,7.81789224 C52.124342,7.44634296 51.5223778,7.44634296 51.1507949,7.81789224 L46.1994534,12.7687864 C45.8278706,13.1403357 45.8278706,13.7428648 46.1994534,14.114414 C46.5710363,14.4859633 47.1730005,14.4859633 47.5445833,14.114414 L52.4959248,9.16290064 C52.8675077,8.79197072 52.8675077,8.18944152 52.4959248,7.81789224 Z" id="Path" fill="#EE7B3C"></path>
                <path d="M14.1141781,14.1141781 C14.4860419,13.7423143 14.4860419,13.1392752 14.1141781,12.7674114 L9.15847303,7.81232602 C8.78598948,7.44604012 8.18728882,7.44851937 7.81790394,7.81790394 C7.44851937,8.18728882 7.44604012,8.78598948 7.81232602,9.15847303 L12.7674114,14.1141781 C13.1392752,14.4860419 13.7423143,14.4860419 14.1141781,14.1141781 Z" id="Path" fill="#EE7B3C"></path>
                <path d="M29.8221401,75.3923028 C30.3276826,75.3923028 30.7378398,74.9799921 30.7378398,74.4717952 L30.7378398,72.6307798 L35.9464783,72.6307798 C38.2112852,72.6229891 40.0444731,70.7765801 40.047454,68.4998819 L40.047454,58.1064154 C40.0748772,54.2188287 41.7023905,50.5158229 44.5430866,47.8771542 C50.998293,41.8171454 53.1349257,32.4178992 49.9383229,24.1405217 C46.7417199,15.8631442 38.8557327,10.3754563 30.0236416,10.2819671 C29.9556796,10.2807686 29.8883137,10.2807686 29.8203516,10.2807686 C20.9179138,10.2807686 12.9281949,15.7738502 9.69761094,24.1129543 C6.46702709,32.4520586 8.65791018,41.9298117 15.2150597,47.982629 C18.0199863,50.5991241 19.6087493,54.2757611 19.5968262,58.121997 L19.5968262,68.4998819 C19.5998069,70.7765801 21.4323988,72.6229891 23.6972056,72.6307798 L28.9064403,72.6307798 L28.9064403,74.4717952 C28.9064403,74.9799921 29.3160014,75.3923028 29.8221401,75.3923028 Z M16.4556659,46.5940767 C10.4571172,41.0584457 8.45402398,32.3891333 11.410375,24.7619842 C14.3673221,17.134835 21.678016,12.1139932 29.8209477,12.1181855 C29.8817559,12.1181855 29.9449487,12.1205854 30.0063531,12.1211846 C38.0914573,12.188305 45.318093,17.2037533 48.2464245,24.7799628 C51.174756,32.3555732 49.2116054,40.9601623 43.2929419,46.496992 C40.3175138,49.2633093 38.5093646,53.0705912 38.2404969,57.1355675 L21.4037832,57.1355675 C21.1671081,53.1119423 19.3947283,49.3358232 16.4556659,46.5940767 Z M21.4282257,68.4998819 L21.4282257,68.0282415 L32.4446422,68.0282415 C32.9507809,68.0282415 33.360342,67.6159308 33.360342,67.1077339 C33.360342,66.5995369 32.9507809,66.1872262 32.4446422,66.1872262 L21.4282257,66.1872262 L21.4282257,63.4257032 L24.172344,63.4257032 C24.6784829,63.4257032 25.0880438,63.0133925 25.0880438,62.5051955 C25.0880438,61.9969986 24.6784829,61.5846879 24.172344,61.5846879 L21.4282257,61.5846879 L21.4282257,58.9765828 L38.2160545,58.9765828 L38.2160545,61.5846879 L27.4655248,61.5846879 C26.9599822,61.5846879 26.549825,61.9969986 26.549825,62.5051955 C26.549825,63.0133925 26.9599822,63.4257032 27.4655248,63.4257032 L38.2160545,63.4257032 L38.2160545,66.1872262 L35.7378227,66.1872262 C35.2322801,66.1872262 34.8221229,66.5995369 34.8221229,67.1077339 C34.8221229,67.6159308 35.2322801,68.0282415 35.7378227,68.0282415 L38.2160545,68.0282415 L38.2160545,68.4998819 C38.2136698,69.7607856 37.2002001,70.7831723 35.9464783,70.7897645 L23.6972056,70.7897645 C22.443484,70.7831723 21.430014,69.7607856 21.4282257,68.4998819 Z" id="Shape" fill="#EE7B3C"></path>
                <g id="Group" transform="translate(13.022307, 13.707691)" fill="#54BDD8">
                    <path d="M25.1178415,3.93044519 C25.1178415,3.90443189 25.1202426,3.87841844 25.1202426,3.85300991 C25.1202426,1.72535475 23.4088221,0.000604924377 21.29761,0.000604924377 C19.1863978,0.000604924377 17.4749775,1.72535475 17.4749775,3.85300991 L17.4749775,27.7805102 C17.4821809,29.4659375 18.4378391,31.0019388 19.9403593,31.7430186 C21.4428796,32.4834934 23.2323376,32.3020045 24.557773,31.2735672 C25.1538587,31.5736289 25.8117741,31.7297093 26.4786939,31.7297093 C28.8936515,31.7260796 30.8487889,29.7496651 30.8445868,27.3152936 L30.8445868,26.2777819 C32.5440016,25.5481965 33.7691889,24.0115902 34.1107526,22.1821818 C34.4523163,20.3527734 33.8640343,18.4719432 32.5440016,17.1706675 C32.680867,17.0182168 32.8075278,16.8560867 32.9215825,16.6860921 C34.2091998,14.7308514 33.6827474,12.0938173 31.7450185,10.7925416 C31.6471716,10.7272056 31.5475237,10.6667093 31.4454749,10.6098427 C31.8344613,8.8010031 31.3086092,6.91593809 30.0402012,5.57715481 C28.7723934,4.23897644 26.9283094,3.62130901 25.1178415,3.92984026 L25.1178415,3.93044519 Z M29.7304527,9.42834979 C29.7304527,10.0805001 29.5605712,10.7211559 29.2370161,11.2867964 C29.2172066,11.3218843 29.1997983,11.3581821 29.1841908,11.3956898 C29.0491261,11.0103283 28.6793488,10.7598735 28.2741545,10.7780225 C27.8689602,10.7961715 27.5231945,11.079294 27.4223461,11.4755449 C27.2602685,12.1174109 27.3401067,12.7967843 27.6462536,13.3823886 C27.605434,13.4876522 27.5430041,13.5826314 27.4637661,13.6624865 C27.1041937,14.0218345 27.0993914,14.6062289 27.4535612,14.9716267 C27.8077309,15.3364194 28.3876089,15.3454939 28.7525838,14.9915904 C28.8672388,14.8784623 28.9710887,14.7556549 29.063533,14.6243779 C29.1193597,14.6352672 29.1763871,14.6413167 29.2334144,14.6419218 C29.6632205,14.6425267 30.0359992,14.343675 30.1326455,13.9214107 C30.2292919,13.4997515 30.0239934,13.0665979 29.6380083,12.8772445 C29.3498702,12.7338681 29.1727854,12.4332015 29.1853914,12.1101511 C29.3090506,12.409003 29.5779796,12.6213451 29.8955317,12.670347 C30.2124837,12.719349 30.5324372,12.5977515 30.7389362,12.3497167 C31.3440263,12.7586716 31.7288107,13.425341 31.7822363,14.1573463 C31.8356618,14.8899566 31.552326,15.6062329 31.0132677,16.0998828 C30.2863191,15.7598936 29.4945397,15.5838493 28.6925552,15.5844542 C28.1835112,15.5844542 27.7705132,16.0000639 27.7705132,16.5136775 C27.7705132,17.0266863 28.1835112,17.4429009 28.6925552,17.4429009 C30.7299318,17.4429009 32.3807233,19.1065494 32.3807233,21.1597941 C32.3807233,23.2124339 30.7299318,24.8766874 28.6925552,24.8766874 C28.1835112,24.8766874 27.7705132,25.292297 27.7705132,25.8059107 C27.7663111,26.0497108 27.859956,26.2856464 28.0292371,26.4604808 C28.1991186,26.6347102 28.4308296,26.7339241 28.673346,26.735134 C28.7825983,26.7369489 28.8912503,26.7327141 28.9999025,26.7230347 L28.9999025,27.3158986 C28.9999025,28.718808 27.8713615,29.8561386 26.4786939,29.8561386 C25.0866265,29.8561386 23.9574852,28.718808 23.9574852,27.3158986 C23.9574852,26.8040999 23.546288,26.3897002 23.0390448,26.3897002 C22.5318017,26.3897002 22.1206045,26.8040999 22.1206045,27.3158986 C22.1206045,28.3056182 22.4519633,29.2662996 23.0618557,30.0424673 C22.6938793,30.2342405 22.2868843,30.3340596 21.8726857,30.3358743 C20.4692129,30.3352694 19.3292664,29.1943089 19.3190615,27.7799053 L19.3190615,3.85240498 C19.3190615,2.75379201 20.2026851,1.86328633 21.2928077,1.86328633 C22.3829303,1.86328633 23.266554,2.75379201 23.266554,3.85240498 C23.2671542,4.15488653 23.1981211,4.45373822 23.0654575,4.72536677 C22.9592066,4.79372756 22.857758,4.8645082 22.755709,4.94073363 C22.3457124,5.24623995 22.259271,5.82821437 22.5624163,6.24140421 C22.8655617,6.65398911 23.4430385,6.7411038 23.8530351,6.43559748 C24.973172,5.60377318 26.4624861,5.47794086 27.7044814,6.11012725 C28.9464768,6.74231365 29.7298525,8.02544033 29.7304527,9.42774486 L29.7304527,9.42834979 Z" id="Shape"></path>
                    <path d="M23.3061729,18.8603294 C23.3680025,19.048473 23.3872118,19.2475058 23.3613993,19.4441188 C23.2953678,19.9528929 23.6507381,20.4193193 24.1555801,20.4864702 C24.6610223,20.5530162 25.1238443,20.1948781 25.1904762,19.686104 C25.3621585,18.3636548 24.6940382,17.0738735 23.5192751,16.4604408 C23.3998178,16.0496708 23.4868596,15.6062329 23.7521867,15.2716884 C24.0709396,14.8718078 24.007309,14.2868084 23.6099186,13.965573 C23.2131284,13.6443376 22.6326501,13.7084637 22.3138972,14.1089492 C21.8564779,14.6818493 21.6127611,15.3981256 21.6253671,16.1331558 C21.1193246,16.2021217 20.6378937,16.3963148 20.2242955,16.6981913 C19.9535657,16.8905696 19.8058948,17.2148298 19.8383104,17.5475596 C19.870726,17.8802892 20.077225,18.1694615 20.3803703,18.3061832 C20.6829154,18.4422999 21.0352842,18.4035823 21.3024123,18.2057594 C21.639774,17.9613542 22.0731819,17.8929934 22.4687715,18.0224556 C22.8643611,18.1519176 23.1753102,18.4628687 23.3061729,18.8603294 Z" id="Path"></path>
                    <path d="M25.4648077,7.03269593 C24.4179058,6.76227739 23.3127761,7.15913318 22.672269,8.03632975 C22.4363559,8.05387364 22.2046449,7.9655491 22.040166,7.79494943 C21.683595,7.42834187 21.1001154,7.42168724 20.7357407,7.78043032 C20.3719662,8.13917355 20.3653632,8.7278026 20.7213338,9.09441016 C21.0010678,9.38297767 21.341431,9.60378916 21.7184117,9.73990582 C21.8618806,9.79193257 22.0095513,9.83125528 22.1596233,9.85787366 C22.1680272,9.95829746 22.1818339,10.0575114 22.2010431,10.1561204 C22.2544687,10.4235142 22.3481136,10.6806235 22.4783761,10.9195838 C22.7238938,11.3690714 23.2845625,11.5330164 23.7305764,11.2855866 C24.1765902,11.0375516 24.3392681,10.4725162 24.0937504,10.0230285 C23.9682903,9.79435257 23.959286,9.51969925 24.0679382,9.28315864 C24.1765902,9.04601311 24.3908929,8.87601852 24.6448147,8.82399162 C24.764272,8.79918817 24.8879312,8.8022131 25.0061879,8.8330661 C25.3255409,8.91715601 25.6653039,8.82217684 25.8964147,8.58442639 C26.1275254,8.34728085 26.2151675,8.00305674 26.1263249,7.6830313 C26.0368821,7.36240078 25.7847611,7.11436599 25.4648077,7.03269593 Z" id="Path"></path>
                    <path d="M24.5565723,23.2463118 C24.2924457,23.2033595 24.0409251,23.1011206 23.8218201,22.9462501 C23.4040198,22.6516332 22.8289442,22.7544768 22.5372043,23.1749262 C22.2448641,23.5953756 22.3463127,24.1749302 22.764113,24.4695472 C23.3734051,24.898466 24.099153,25.128352 24.8423093,25.128352 C24.9935818,25.1277471 25.1442541,25.1180677 25.2937257,25.0987089 C25.3957746,25.7423896 25.6665044,26.3467478 26.0777015,26.8494721 C26.401857,27.2457228 26.9829356,27.3019844 27.3755237,26.9753045 C27.7687123,26.6486242 27.824539,26.06302 27.5003836,25.6673742 C27.1348084,25.2197015 27.0057465,24.6219979 27.1540176,24.0611971 C27.1582195,24.0472831 27.1624215,24.0333689 27.1660233,24.0194547 C27.2500636,23.7302823 27.4049378,23.4671234 27.6162391,23.2541764 C27.9764118,22.8918035 27.9770122,22.3031744 27.6174398,21.9401966 C27.2572671,21.5772187 26.6737874,21.5766136 26.3130143,21.9395915 C25.9750524,22.2807908 25.7067237,22.686116 25.5248365,23.1319738 C25.2186898,23.260226 24.8837291,23.2995485 24.5565723,23.2463118 Z" id="Path"></path>
                    <path d="M0.129039975,21.1591892 C0.125460107,23.3915029 1.44969502,25.4090549 3.49067346,26.278387 L3.49067346,27.3158986 C3.48407025,29.7484553 5.43680635,31.7254745 7.85116386,31.7297093 C8.51988437,31.7303142 9.17900042,31.5742338 9.7774873,31.2735672 C11.1029227,32.3020045 12.8923805,32.4840983 14.3949009,31.7430186 C15.8974212,31.0019388 16.8530794,29.4659375 16.8602828,27.7799053 L16.8602828,3.85240498 C16.8602828,1.72716967 15.1506632,0.00483970475 13.0424525,0.00483970475 C10.9336416,0.00483970475 9.22462229,1.72716967 9.22462229,3.85240498 C9.22462229,3.87841844 9.22162074,3.90443189 9.22222114,3.92984026 C8.9160743,3.87841844 8.60572556,3.85240498 8.29537682,3.85240498 C6.62117425,3.84998513 5.03641452,4.61284356 3.98591083,5.92621847 C2.93540715,7.23959339 2.53201376,8.96192336 2.88918503,10.6098427 C2.78653578,10.6673142 2.68568743,10.7272056 2.58784064,10.7931465 C0.649511297,12.0938173 0.122458706,14.7302463 1.40887545,16.6860921 C1.52473095,16.8566917 1.65259221,17.0188218 1.79125872,17.1706675 C0.724547384,18.2190685 0.124859857,19.6576709 0.129039975,21.1591892 Z M2.9444115,15.6576547 C2.22346592,14.5614618 2.51460546,13.0847467 3.5963241,12.3491116 C3.80222285,12.5971466 4.1221762,12.7187441 4.43972839,12.6697421 C4.75728059,12.6207402 5.02620951,12.4083981 5.14926847,12.1095462 C5.16187463,12.4325966 4.98478969,12.7332632 4.69725181,12.8760345 C4.31066648,13.065993 4.10536814,13.4991464 4.20201443,13.9208058 C4.29926098,14.34307 4.6720398,14.6413167 5.10184585,14.6407118 C5.15827282,14.6407118 5.2153002,14.6346623 5.27052667,14.6237728 C5.36297107,14.7550499 5.46742106,14.8778573 5.58147567,14.9903806 C5.94585038,15.3497286 6.5293301,15.3430739 6.88530087,14.9764664 C7.24187173,14.6092537 7.23526853,14.0212296 6.87149421,13.6618816 C6.79165582,13.5826314 6.7298263,13.4876522 6.68840648,13.3823886 C6.99455317,12.7961794 7.07499165,12.1168058 6.91291403,11.47494 C6.81206568,11.0786891 6.46629992,10.7961715 6.06110564,10.7774176 C5.6553111,10.7592686 5.28613423,11.0103283 5.15046912,11.3956898 C5.13546196,11.3581821 5.11745325,11.3212793 5.09764379,11.2861915 C4.22362479,9.76168449 4.53037188,7.82822244 5.83239603,6.65459404 C7.13502058,5.48157056 9.07575093,5.38961617 10.4816248,6.43559748 C10.8910212,6.74049887 11.4684979,6.65277911 11.771043,6.24019436 C12.073588,5.82760945 11.9865463,5.24563503 11.5771501,4.94073363 C11.4751011,4.8645082 11.3706511,4.79372756 11.2650005,4.72536677 C11.130536,4.4543433 11.0603022,4.15549146 11.0591017,3.85240498 C11.072308,2.76105156 11.9541307,1.88325007 13.0376502,1.88325007 C14.1205694,1.88325007 15.0023921,2.76105156 15.0161988,3.85240498 L15.0161988,27.7799053 C15.0101958,28.6764605 14.5413711,29.50526 13.7790055,29.9674518 C13.0166401,30.4290387 12.0699864,30.4574719 11.2818084,30.0424673 C11.8899,29.2656947 12.219458,28.3044083 12.2170568,27.3152936 C12.2104536,26.8059148 11.7986563,26.3963547 11.2932139,26.3963547 C10.7877717,26.3963547 10.3759742,26.8059148 10.369371,27.3152936 C10.369371,28.7163882 9.24263085,29.8519039 7.85236436,29.8519039 C6.46209787,29.8519039 5.33535775,28.7163882 5.33535775,27.3152936 L5.33535775,26.7224298 C5.4440098,26.7327141 5.55266185,26.7369489 5.6619143,26.7345291 C5.90503082,26.7339241 6.13854272,26.63592 6.30962485,26.4610857 C6.48130708,26.2868564 6.57615263,26.0509208 6.57435172,25.8053058 C6.57195057,25.2910872 6.15775193,24.8754775 5.6475074,24.8760824 C3.61073101,24.8772923 1.9581388,23.2136439 1.95753775,21.1610041 C1.9563379,19.1083642 3.60712921,17.4435058 5.64390559,17.4422959 C6.15294963,17.4422959 6.56594762,17.0260813 6.56534737,16.5124677 C6.56534737,15.999459 6.15234938,15.5838493 5.6427051,15.5838493 C4.84132088,15.5832444 4.04954126,15.7592885 3.32259288,16.0998828 C3.17912406,15.9686058 3.05186305,15.819785 2.9444115,15.6576547 Z" id="Shape"></path>
                    <path d="M12.709893,16.1331558 C12.7140951,15.8808862 12.6882827,15.6292216 12.6330562,15.3836065 C12.528006,14.9171799 12.3191057,14.4816065 12.0219633,14.1089492 C11.7032105,13.7084637 11.1227322,13.6443376 10.7253417,13.965573 C10.3285516,14.2868084 10.2643207,14.8718078 10.5830736,15.2716884 C10.8484007,15.6062329 10.9354424,16.0496708 10.8165855,16.4604408 C9.64122193,17.0738735 8.97370193,18.3636548 9.14598456,19.686104 C9.21201614,20.1948781 9.67543845,20.5530162 10.1802804,20.4864702 C10.6851224,20.4193193 11.041093,19.9528929 10.974461,19.4441188 C10.9486488,19.2475058 10.967858,19.048473 11.0302879,18.8603294 C11.1611506,18.4628687 11.4720997,18.1513127 11.8676893,18.0224556 C12.2632789,17.8929934 12.6966868,17.9613542 13.0340484,18.2057594 C13.3011766,18.4035823 13.6535454,18.4422999 13.9560905,18.3061832 C14.2592358,18.1694615 14.4663352,17.8802892 14.4981504,17.5475596 C14.530566,17.2148298 14.3828951,16.8905696 14.1121653,16.6981913 C13.6985671,16.3963148 13.2171362,16.2021217 12.7110937,16.1331558 L12.709893,16.1331558 Z" id="Path"></path>
                    <path d="M9.32907229,8.8330661 C9.59980212,8.76349546 9.88673975,8.83911581 10.0896369,9.03330892 C10.2919339,9.22750204 10.3813769,9.5124397 10.3261502,9.78830287 C10.3099426,9.87057785 10.281729,9.94982805 10.2415097,10.0230285 C9.99599205,10.4725162 10.1580697,11.0375516 10.6040835,11.2855866 C11.0500974,11.5330164 11.6107662,11.3690714 11.8568842,10.9195838 C11.9871466,10.6806235 12.0807915,10.4235142 12.1342172,10.1561204 C12.1534264,10.0575114 12.1672329,9.95829746 12.175637,9.85787366 C12.3257089,9.83125528 12.4733797,9.79193257 12.6168484,9.73990582 C12.9932289,9.60378916 13.3341923,9.38297767 13.6133263,9.09441016 C13.9692969,8.7278026 13.9632939,8.13917355 13.5989194,7.78043032 C13.2351449,7.42168724 12.6510649,7.42834187 12.2950942,7.79494943 C12.1300151,7.9655491 11.898304,8.05387364 11.6629912,8.03632975 C11.0218838,7.15913318 9.91735431,6.76227739 8.87045243,7.03269593 C8.55049908,7.11436599 8.29777797,7.36240078 8.20893538,7.6830313 C8.11949254,8.00305674 8.20713447,8.34728085 8.43884548,8.58442639 C8.66995639,8.82217684 9.00911894,8.91715601 9.32907229,8.8330661 Z" id="Path"></path>
                    <path d="M6.71902104,23.2541764 C6.93092259,23.4671234 7.08579691,23.7302823 7.1698372,24.0194547 C7.173439,24.0333689 7.17704065,24.0472831 7.1812427,24.0611971 C7.32951367,24.621393 7.20045191,25.2190966 6.83547694,25.6667692 C6.51132155,26.06302 6.56714827,26.6486242 6.9597364,26.9753045 C7.35292493,27.3013794 7.9340035,27.2451179 8.2581589,26.8494721 C8.66935599,26.3461428 8.93948556,25.7417847 9.04153456,25.0981039 C9.38489901,25.143476 9.73246568,25.1374265 10.0740295,25.081165 C10.6124876,24.9940503 11.1251333,24.7853379 11.5717474,24.4689423 C11.9889475,24.1749302 12.0903961,23.5953756 11.798056,23.1749262 C11.5063161,22.7544768 10.9312403,22.6522381 10.5140404,22.9468552 C10.0152013,23.2977338 9.37289341,23.3673044 8.8116243,23.1313689 C8.62973707,22.6855111 8.36140839,22.2801858 8.02284609,21.9389866 C7.66267342,21.5766136 7.07859346,21.5766136 6.71902104,21.9401966 C6.35884837,22.3031744 6.35944862,22.8911986 6.71962129,23.2541764 L6.71902104,23.2541764 Z" id="Path"></path>
                </g>
            </g>
        </g>
    </g>
</svg>