<?xml version="1.0" encoding="UTF-8"?>
<svg width="41px" height="38px" viewBox="0 0 41 38" version="1.1" xmlns="http://www.w3.org/2000/svg" xmlns:xlink="http://www.w3.org/1999/xlink">
    <title>55FB4FE6-EB8D-4C01-9806-D5CB5AC29AF6</title>
    <g id="Go-around-level" stroke="none" stroke-width="1" fill="none" fill-rule="evenodd">
        <g id="stat-image" transform="translate(-39.000000, -64.000000)" fill-rule="nonzero">
            <g id="question-(2)" transform="translate(39.000000, 64.000000)">
                <path d="M20.25,0.0395507812 C9.08402344,0.0395507812 0,7.18954102 0,15.9785156 C0,24.7674902 9.08402344,31.9174805 20.25,31.9174805 C20.4783662,31.9174805 20.7054668,31.9143955 20.9319346,31.908542 L31.4447695,37.4660596 C31.6301836,37.5640664 31.8331582,37.612793 32.0362119,37.612793 C32.2627588,37.612793 32.4889102,37.5518848 32.6894326,37.4310967 C33.0694365,37.2020977 33.3018369,36.7908486 33.3018369,36.347168 L33.3018369,28.1709932 C37.8866426,25.1361035 40.5000791,20.7268242 40.5000791,15.9785947 C40.5000791,7.18954102 31.4159766,0.0395507812 20.25,0.0395507812 Z" id="Path" fill="#EE7B3C"></path>
                <path d="M20.25,0.0395507812 C19.2811641,0.0395507812 18.329335,0.0967412109 17.3964902,0.200838867 C27.2156045,1.2959209 34.7929014,7.95215918 34.7929014,15.9785156 C34.7929014,20.7267451 32.1794648,25.1360244 27.5946592,28.1709141 L27.5946592,35.4306182 L31.4446904,37.4659014 C31.6301045,37.5639082 31.8330791,37.6126348 32.0361328,37.6126348 C32.2626797,37.6126348 32.4888311,37.5517266 32.6893535,37.4309385 C33.0693574,37.2019395 33.3017578,36.7906904 33.3017578,36.3470098 L33.3017578,28.1709141 C37.8865635,25.1360244 40.5,20.7267451 40.5,15.9785156 C40.5,7.18954102 31.4159766,0.0395507812 20.25,0.0395507812 Z" id="Path" fill-opacity="0.13442417" fill="#212121"></path>
                <g id="Group" transform="translate(14.475586, 7.831055)" fill="#FFFFFF">
                    <path d="M5.18115234,13.5020039 C4.48221094,13.5020039 3.91552734,12.9353994 3.91552734,12.2363789 L3.91552734,8.98672852 C3.91552734,8.28770801 4.48221094,7.72110352 5.18115234,7.72110352 C6.60529688,7.72110352 7.76366016,6.56250293 7.76366016,5.1384375 C7.76366016,3.71437207 6.60521777,2.55577148 5.18115234,2.55577148 C3.75708691,2.55577148 2.59864453,3.71437207 2.59864453,5.1384375 C2.59864453,5.83745801 2.03196094,6.4040625 1.33301953,6.4040625 C0.634078125,6.4040625 0.0673945313,5.83745801 0.0673945313,5.1384375 C0.0673945313,2.318625 2.36133984,0.0245214844 5.18115234,0.0245214844 C8.00096484,0.0245214844 10.2949102,2.318625 10.2949102,5.1384375 C10.2949102,7.52160938 8.65632129,9.52928613 6.44677734,10.0939131 L6.44677734,12.236458 C6.44677734,12.9353203 5.88009375,13.5020039 5.18115234,13.5020039 Z" id="Path"></path>
                    <path d="M5.17964941,17.9956055 C4.85058691,17.9956055 4.52144531,17.8626357 4.28722559,17.622167 C4.05300586,17.3880264 3.91394531,17.065292 3.91394531,16.7299805 C3.91394531,16.3945898 4.05300586,16.0717764 4.28722559,15.8377148 C4.75534863,15.3631055 5.60355469,15.3631055 6.07808496,15.8377148 C6.31230469,16.0718555 6.44519531,16.3945898 6.44519531,16.7299805 C6.44519531,17.065292 6.31230469,17.3880264 6.07808496,17.622167 C5.83777441,17.8626357 5.51480273,17.9956055 5.17964941,17.9956055 Z" id="Path"></path>
                </g>
            </g>
        </g>
    </g>
</svg>