<?xml version="1.0" encoding="UTF-8"?>
<svg width="45px" height="28px" viewBox="0 0 45 28" version="1.1" xmlns="http://www.w3.org/2000/svg" xmlns:xlink="http://www.w3.org/1999/xlink">
    <title>D2CA503A-9470-4B7C-9374-210DD2B9D4B5</title>
    <g id="Go-around-level" stroke="none" stroke-width="1" fill="none" fill-rule="evenodd">
        <g id="stat-image" transform="translate(-41.000000, -308.000000)" fill-rule="nonzero">
            <g id="speed" transform="translate(41.000000, 308.000000)">
                <path d="M39.1851425,22.0406342 C39.0639496,17.6385498 37.230606,13.6319732 34.3034363,10.7041168 L34.303093,10.7041168 C31.1850357,7.58674617 26.9673157,5.81485746 22.5,5.81485746 C18.1693267,5.81485746 13.9056015,7.49507906 10.6965637,10.7041168 C7.57164006,13.8293838 5.92987061,17.913208 5.81485746,22.0416641 C5.8086777,22.2634506 5.625,22.4392319 5.40321346,22.4392319 L39.5964432,22.4392319 C39.3743134,22.4388886 39.1913223,22.262764 39.1851425,22.0406342 Z" id="Path" fill="#FFFFFF"></path>
                <path d="M13.7754822,10.8922577 C16.6072083,7.95135498 20.2605057,6.24778752 24.0559387,5.88798527 C23.5416412,5.83992 23.0225372,5.81485746 22.5,5.81485746 C18.1693267,5.81485746 13.9056015,7.49507906 10.6965637,10.7037735 C7.57164006,13.8293838 5.92987061,17.9128647 5.81485746,22.0413208 C5.8086777,22.2631073 5.625,22.4388886 5.40321346,22.4388886 L8.90201566,22.4388886 C9.06818388,18.2290649 10.7058335,14.0806961 13.7754822,10.8922577 Z" id="Path" fill="#D8DCE5"></path>
                <path d="M38.4136963,6.59214018 C34.1825867,2.36274715 28.4865188,0 22.5,0 L22.5,6.12041476 C26.8852615,6.12041476 31.0253906,7.85968778 34.086113,10.9197236 L38.4136963,6.59214018 Z" id="Path" fill="#EE4E3C"></path>
                <path d="M6.58596041,6.59179688 L10.913887,10.9197236 C13.9914322,7.8421783 18.1411743,6.12041476 22.5,6.12041476 L22.5,0 C16.8310547,0 11.3186646,2.02835083 6.58596041,6.59179688 Z" id="Path" fill="#15BA8B"></path>
                <path d="M6.58596041,6.59179688 L10.913887,10.9197236 C13.9914322,7.8421783 18.1411743,6.12041476 22.5,6.12041476 L22.5,0 C16.8310547,0 11.3186646,2.02835083 6.58596041,6.59179688 Z" id="Path" fill="#EE7B3C"></path>
                <path d="M-9.30757266e-05,22.0231247 C-0.00480651855,22.2507476 0.177154541,22.4388886 0.404777549,22.4388886 L5.71769719,22.4388886 C5.93536377,22.4388886 6.11560819,22.2665405 6.12178805,22.0488739 C6.23439791,17.9959488 7.84629826,13.9876557 10.913887,10.9197236 L6.58596041,6.59179688 C2.51758573,10.6601715 0.124626182,16.1474991 -9.30757266e-05,22.0231247 Z" id="Path" fill="#FF945A"></path>
                <path d="M9.37374117,6.4201355 C13.2076264,2.72323608 17.5482559,0.673599199 22.0705032,0.00480651855 C16.5529633,0.105056719 11.1991882,2.14370728 6.58596041,6.59179687 L7.96234131,7.96817777 C8.4076309,7.43293758 8.87832642,6.91589355 9.37374117,6.4201355 Z" id="Path" fill="#919191" opacity="0.30203683"></path>
                <path d="M3.12595365,22.4388886 C2.89558406,22.4388886 2.71156307,22.2486877 2.71671293,22.0186615 C2.8272629,16.7950058 4.71244816,11.8758774 7.96234131,7.96817777 L6.58596041,6.59179688 C2.51758573,10.6601715 0.124626182,16.1474991 -2.64206517e-16,22.0231247 C-0.00480651855,22.2507476 0.177154541,22.4388886 0.404777549,22.4388886 L5.71769719,22.4388886 L3.12595365,22.4388886 Z" id="Path" fill="#DADADA" opacity="0.41389974"></path>
                <path d="M38.4140396,6.59179688 L34.086113,10.9197236 C36.9600678,13.7940216 38.7594223,17.7267837 38.878212,22.0481873 C38.8843918,22.2661972 39.0642929,22.4388886 39.2823028,22.4388886 L44.5952225,22.4388886 C44.8228455,22.4388886 45.0048066,22.251091 45.0000931,22.0231247 C44.8774338,16.292038 42.5785446,10.7549286 38.4140396,6.59179688 L38.4140396,6.59179688 Z" id="Path" fill="#EE3C3C"></path>
                <path d="M29.1144561,23.225441 L32.4014282,12.5899887 C32.537384,12.1495056 32.12471,11.7368316 31.6845703,11.8727875 L21.0487747,15.1597595 C16.409111,16.5938186 14.959259,22.4474716 18.3931733,25.8810425 C21.8270874,29.3149566 27.680397,27.8651047 29.1144561,23.225441 L29.1144561,23.225441 Z" id="Path" fill="#54BDD8"></path>
                <path d="M21.1095429,25.8810425 C17.6756287,22.4474716 19.125824,16.5938186 23.7654877,15.1597595 L32.4227143,12.4842453 C32.4694062,12.0866775 32.0893479,11.7478179 31.6845703,11.8727875 L21.0487747,15.1597595 C16.409111,16.5938186 14.959259,22.4474716 18.3931733,25.8810425 C20.0524521,27.5403213 22.2764969,28.059082 24.2938614,27.6288986 C23.1457901,27.3817063 22.0389175,26.8107605 21.1095429,25.8810425 Z" id="Path" fill="#4B9BB0"></path>
                <path d="M24.8270416,19.4468308 C23.7466049,18.3660507 21.9946289,18.3660507 20.9138489,19.4468308 C19.8334121,20.5272675 19.8334121,22.2792434 20.9138489,23.3600235 C21.9946289,24.4404602 23.7466049,24.4404602 24.8270416,23.3600235 C25.9078217,22.2792434 25.9078217,20.5272675 24.8270416,19.4468308 L24.8270416,19.4468308 Z" id="Path" fill="#E19A73"></path>
                <path d="M24.2543793,19.006691 C23.1962585,18.3948899 21.8198776,18.5414887 20.9141922,19.4468308 C19.8337554,20.5272675 19.8337554,22.2795868 20.9141922,23.3600235 C21.8195343,24.2653656 23.1962585,24.4116211 24.2543793,23.8001633 C22.4042129,22.7303696 22.4193191,20.0679016 24.2543793,19.006691 L24.2543793,19.006691 Z" id="Path" fill="#EE7B3C"></path>
            </g>
        </g>
    </g>
</svg>