<?xml version="1.0" encoding="UTF-8"?>
<svg width="35px" height="43px" viewBox="0 0 35 43" version="1.1" xmlns="http://www.w3.org/2000/svg" xmlns:xlink="http://www.w3.org/1999/xlink">
    <title>B820521D-908C-4B00-9CEA-76AF6DC9AE5A</title>
    <g id="Go-around-level" stroke="none" stroke-width="1" fill="none" fill-rule="evenodd">
        <g id="stat-image" transform="translate(-41.000000, -222.000000)" fill-rule="nonzero">
            <g id="timer-(1)" transform="translate(41.000000, 222.000000)">
                <path d="M9.81681363,11.8533252 L6.39239597,7.87027891 C6.14994343,7.58831558 5.72475351,7.55607838 5.44261059,7.79871051 L3.31127315,9.63111295 C3.17585891,9.74757996 3.09225768,9.91307627 3.0787881,10.0911442 C3.06531851,10.2692121 3.12323773,10.4453943 3.23970475,10.5808983 L6.66412241,14.5639446 C6.79729172,14.7188448 6.98568632,14.7983154 7.17506869,14.7983154 C7.33050771,14.7983154 7.48675491,14.7447963 7.613818,14.635513 L9.74515544,12.8031106 C9.88056967,12.6866436 9.9641709,12.5211472 9.97764049,12.3430793 C9.99119987,12.1649216 9.93328065,11.9887394 9.81681363,11.8533252 L9.81681363,11.8533252 Z" id="Path" fill="#969696"></path>
                <path d="M7.81343726,6.64867729 L6.36743234,4.96677502 C6.12489,4.6848117 5.69978987,4.65266428 5.41764695,4.89520662 L0.444496327,9.17081231 C0.309082093,9.28727932 0.225480864,9.45277563 0.212011279,9.63084356 C0.19863149,9.80891148 0.256460911,9.98509366 0.372927929,10.1205977 L1.81893285,11.8025 C1.95210215,11.9574002 2.14040696,12.0368707 2.32987913,12.0368707 C2.48531815,12.0368707 2.64156535,11.9833516 2.76862844,11.8740684 L7.74177906,7.59846267 C7.8771933,7.48199565 7.96079453,7.31649934 7.97426411,7.13843142 C7.9877337,6.9602737 7.92981448,6.78409152 7.81343726,6.64867729 Z" id="Path" fill="#212121"></path>
                <path d="M32.0980227,10.0911442 C32.0846429,9.91307627 32.0009519,9.74757996 31.8655376,9.63111295 L29.7342002,7.79871051 C29.4521471,7.55616817 29.0269571,7.58822579 28.7844148,7.87027891 L25.3599971,11.8533252 C25.2436199,11.9887394 25.1857007,12.1649216 25.1991703,12.3430793 C25.2126399,12.5211472 25.2962411,12.6866436 25.4316553,12.8031106 L27.5629928,14.635513 C27.6901457,14.7447963 27.846303,14.7983154 28.0018319,14.7983154 C28.1912142,14.7983154 28.3796088,14.7188448 28.5127781,14.5639446 L31.9371958,10.5808983 C32.053573,10.4453943 32.1114025,10.2693019 32.0980227,10.0911442 L32.0980227,10.0911442 Z" id="Path" fill="#969696"></path>
                <path d="M34.732494,9.17081231 L29.7592536,4.89520662 C29.6237496,4.77873961 29.4476572,4.72019181 29.2694995,4.73428997 C29.0914315,4.74766976 28.9259352,4.83136079 28.8094682,4.96677502 L27.3634633,6.64867729 C27.1210108,6.93073041 27.1530684,7.35592033 27.4351215,7.59837287 L32.4083619,11.8739786 C32.5309351,11.9794005 32.686913,12.0367809 32.8474704,12.0367809 C32.8643523,12.0367809 32.8812342,12.0361524 32.8981161,12.0348952 C33.076184,12.0214256 33.2416803,11.9378244 33.3581473,11.8023204 L34.8040624,10.1204181 C35.0466048,9.83854457 35.0144574,9.41326485 34.732494,9.17081231 L34.732494,9.17081231 Z" id="Path" fill="#212121"></path>
                <polygon id="Path" fill="#3B99B1" points="15.6165478 3.86289758 19.7493759 3.86289758 19.7493759 9.76527002 15.6165478 9.76527002"></polygon>
                <path d="M20.2169501,0.0860257538 L12.6235161,0.0860257538 C11.9111546,0.0860257538 11.3336686,0.66351179 11.3336686,1.37587328 L11.3336686,2.94283508 C11.3336686,3.65519657 11.9111546,4.2326826 12.6235161,4.2326826 L20.176272,4.2326826 L22.010201,3.73834881 L22.010201,0.611698784 L20.2169501,0.0860257538 Z" id="Path" fill="#54BDD8"></path>
                <path d="M22.742228,0.0860257538 L20.0483109,0.0860257538 C20.7606724,0.0860257538 21.3381584,0.66351179 21.3381584,1.37587328 L21.3381584,2.94283508 C21.3381584,3.65519657 20.7606724,4.2326826 20.0483109,4.2326826 L22.742228,4.2326826 C23.4545895,4.2326826 24.0320756,3.65519657 24.0320756,2.94283508 L24.0320756,1.37587328 C24.0320756,0.66351179 23.4545895,0.0860257538 22.742228,0.0860257538 Z" id="Path" fill="#2893AE"></path>
                <path d="M13.2406925,41.4610011 C3.99678526,39.0076507 -1.50805481,29.5250624 0.945295523,20.2811552 C2.92343888,12.827715 9.47154326,7.80517591 16.7796915,7.425154 C18.5352275,7.33392001 33.900343,10.1521165 33.900343,24.19398 C33.900343,34.4831271 24.5144663,42.6385122 16.3358237,41.9909844 C15.3078249,41.9096281 14.2727322,41.7349724 13.2406925,41.4610011 Z" id="Path" fill="#EE7B3C"></path>
                <path d="M17.6828721,7.40629658 C17.2295756,7.40629658 16.7804098,7.42389684 16.3359135,7.45810959 C25.2703795,8.14550744 32.3059931,15.6126866 32.3059931,24.7234245 C32.3059931,33.8341625 25.2702897,41.3013416 16.3359135,41.9887394 C16.7804098,42.0229522 17.2295756,42.0405524 17.6828721,42.0405524 C27.2468167,42.0405524 34.9999102,34.2874589 34.9999102,24.7234245 C34.9999102,15.1593901 27.2469065,7.40629658 17.6828721,7.40629658 Z" id="Path" fill="#C8632B"></path>
                <circle id="Oval" fill="#FFF3EF" cx="17.6828721" cy="24.7234245" r="13.4857492"></circle>
                <path d="M19.4254773,11.3507301 C18.3727843,11.2135199 17.3327526,11.2021156 16.320199,11.3041253 C16.4571398,11.3177745 16.5941704,11.3328604 16.7315601,11.3507301 C24.1171136,12.313087 29.3240962,19.0804763 28.3616494,26.4660297 C27.5364128,32.7988901 22.4430237,37.5294984 16.351628,38.1428135 C23.5754566,38.8634364 30.1110792,33.7141934 31.0555665,26.4660297 C32.0180133,19.0804763 26.8110307,12.313087 19.4254773,11.3507301 Z" id="Path" fill="#F1F0F0"></path>
                <g id="Group" transform="translate(4.996139, 12.032830)" fill="#B6C4CF">
                    <path d="M12.6896967,3.0590327 C12.3435283,3.0590327 12.0629119,2.77841634 12.0629119,2.43224798 L12.0629119,0.70059805 C12.0629119,0.354429698 12.3435283,0.0738133295 12.6896967,0.0738133295 C13.035865,0.0738133295 13.3164814,0.354429698 13.3164814,0.70059805 L13.3164814,2.43224798 C13.3164814,2.77841634 13.035865,3.0590327 12.6896967,3.0590327 Z" id="Path"></path>
                    <path d="M19.9961387,6.05305221 C19.8356711,6.05305221 19.6752932,5.99190029 19.5528996,5.86950665 C19.3081123,5.62471938 19.3081123,5.22790539 19.5529894,4.98311812 L20.7774645,3.75864298 C21.022162,3.51376592 21.418976,3.51385571 21.663853,3.75864298 C21.9086403,4.00343025 21.9086403,4.40024425 21.6637632,4.64503152 L20.4392881,5.86950665 C20.3168945,5.99181049 20.1564268,6.05305221 19.9961387,6.05305221 Z" id="Path"></path>
                    <path d="M24.7770335,13.336596 L23.0453835,13.336596 C22.6992152,13.336596 22.4185988,13.0559796 22.4185988,12.7098112 C22.4185988,12.3636429 22.6992152,12.0830265 23.0453835,12.0830265 L24.7770335,12.0830265 C25.1232018,12.0830265 25.4038182,12.3636429 25.4038182,12.7098112 C25.4038182,13.0559796 25.1232018,13.336596 24.7770335,13.336596 Z" id="Path"></path>
                    <path d="M21.2758392,21.8674234 C21.1154613,21.8674234 20.9549936,21.8061816 20.8326,21.6838778 L19.6081249,20.4594027 C19.3633376,20.2146154 19.3633376,19.8178014 19.6081249,19.5730141 C19.8530019,19.3282269 20.2497261,19.3282269 20.4946032,19.5730141 L21.7190783,20.7974893 C21.9638656,21.0422765 21.9638656,21.4390905 21.7190783,21.6838778 C21.5966847,21.8062714 21.436217,21.8674234 21.2758392,21.8674234 L21.2758392,21.8674234 Z" id="Path"></path>
                    <path d="M12.7678203,25.4240226 C12.4216519,25.4240226 12.1410355,25.1434062 12.1410355,24.7972378 L12.1410355,23.0654981 C12.1410355,22.7193298 12.4216519,22.4387134 12.7678203,22.4387134 C13.1139886,22.4387134 13.394605,22.7193298 13.394605,23.0654981 L13.394605,24.7972378 C13.394605,25.1433164 13.1139886,25.4240226 12.7678203,25.4240226 Z" id="Path"></path>
                    <path d="M4.23690307,21.9227385 C4.07652521,21.9227385 3.91605754,21.8615865 3.7937537,21.7391031 C3.54896643,21.4943158 3.54896643,21.0975018 3.7937537,20.8527146 L5.01822884,19.6282394 C5.26301611,19.3834522 5.6598301,19.3834522 5.90461737,19.6282394 C6.14940464,19.8730267 6.14940464,20.2698407 5.90461737,20.514628 L4.68014224,21.7391031 C4.5577486,21.8614967 4.39728094,21.9227385 4.23690307,21.9227385 Z" id="Path"></path>
                    <path d="M2.4121334,13.4147196 L0.680483468,13.4147196 C0.334315116,13.4147196 0.0536987482,13.1341032 0.0536987482,12.7879348 C0.0536987482,12.4417665 0.334315116,12.1611501 0.680483468,12.1611501 L2.4121334,12.1611501 C2.75830175,12.1611501 3.03891812,12.4417665 3.03891812,12.7879348 C3.03891812,13.1341032 2.75830175,13.4147196 2.4121334,13.4147196 Z" id="Path"></path>
                    <path d="M5.40615291,6.10827751 C5.24577504,6.10827751 5.08530738,6.04712559 4.96300354,5.92473196 L3.7385284,4.70025682 C3.49374113,4.45546955 3.49374113,4.05865556 3.7385284,3.81386829 C3.98331567,3.56908102 4.38012967,3.56899122 4.62491694,3.81386829 L5.84939207,5.03834342 C6.09417934,5.28313069 6.09417934,5.67994468 5.84939207,5.92473196 C5.72699844,6.04712559 5.56653077,6.10827751 5.40615291,6.10827751 Z" id="Path"></path>
                </g>
                <path d="M17.6829619,24.421167 C17.3109319,24.421167 17.0094826,24.1196279 17.0094826,23.7476877 L17.0094826,19.2190334 C17.0094826,18.8470933 17.3109319,18.5455541 17.6829619,18.5455541 C18.0549918,18.5455541 18.3564412,18.8470933 18.3564412,19.2190334 L18.3564412,23.7476877 C18.3564412,24.1196279 18.054902,24.421167 17.6829619,24.421167 Z" id="Path" fill="#678D98"></path>
                <path d="M23.3493472,30.9064133 C23.1769365,30.9064133 23.0046156,30.8406817 22.8730626,30.7091288 L17.9700436,25.8061098 C17.7070275,25.5430937 17.7070275,25.1166466 17.9700436,24.8537203 C18.2332393,24.5907042 18.6595966,24.5907042 18.9226127,24.8537203 L23.8255419,29.7567393 C24.088558,30.0197554 24.088558,30.4462025 23.8255419,30.7091288 C23.6940788,30.8405919 23.5216681,30.9064133 23.3493472,30.9064133 L23.3493472,30.9064133 Z" id="Path" fill="#678D98"></path>
                <path d="M17.7729387,26.0097699 C17.0267237,26.0097699 16.4195147,25.4026508 16.4195147,24.6564358 C16.4195147,23.9102207 17.0266339,23.3031016 17.7729387,23.3031016 C18.5191538,23.3031016 19.1262729,23.9102207 19.1262729,24.6564358 C19.1262729,25.4026508 18.5191538,26.0097699 17.7729387,26.0097699 Z" id="Path" fill="#3E5959"></path>
            </g>
        </g>
    </g>
</svg>